HIERARCHY
ROOT Hips
{
	OFFSET -0.001795 -0.223333 0.028219
	CHANNELS 6 Xposition Yposition Zposition Zrotation Yrotation Xrotation 
	JOINT LeftUpLeg
	{
		OFFSET 0.069520 -0.091406 -0.006815
		CHANNELS 3 Zrotation Yrotation Xrotation
		JOINT LeftLeg
		{
			OFFSET 0.034277 -0.375199 -0.004496
			CHANNELS 3 Zrotation Yrotation Xrotation
			JOINT LeftFoot
			{
				OFFSET -0.013596 -0.397961 -0.043693
				CHANNELS 3 Zrotation Yrotation Xrotation
				JOINT LeftToe
				{
					OFFSET 0.026358 -0.055791 0.119288
					CHANNELS 3 Zrotation Yrotation Xrotation
					End Site
					{
						OFFSET 0.000000 0.000000 0.000000
					}
				}
			}
		}
	}
	JOINT RightUpLeg
	{
		OFFSET -0.067670 -0.090522 -0.004320
		CHANNELS 3 Zrotation Yrotation Xrotation
		JOINT RightLeg
		{
			OFFSET -0.038290 -0.382569 -0.008850
			CHANNELS 3 Zrotation Yrotation Xrotation
			JOINT RightFoot
			{
				OFFSET 0.015774 -0.398415 -0.042312
				CHANNELS 3 Zrotation Yrotation Xrotation
				JOINT RightToe
				{
					OFFSET -0.025372 -0.048144 0.123348
					CHANNELS 3 Zrotation Yrotation Xrotation
					End Site
					{
						OFFSET 0.000000 0.000000 0.000000
					}
				}
			}
		}
	}
	JOINT Spine
	{
		OFFSET -0.002533 0.108963 -0.026696
		CHANNELS 3 Zrotation Yrotation Xrotation
		JOINT Spine1
		{
			OFFSET 0.005487 0.135180 0.001092
			CHANNELS 3 Zrotation Yrotation Xrotation
			JOINT Spine2
			{
				OFFSET 0.001457 0.052922 0.025425
				CHANNELS 3 Zrotation Yrotation Xrotation
				JOINT Neck
				{
					OFFSET -0.002778 0.213870 -0.042857
					CHANNELS 3 Zrotation Yrotation Xrotation
					JOINT Head
					{
						OFFSET 0.005152 0.064970 0.051349
						CHANNELS 3 Zrotation Yrotation Xrotation
						End Site
						{
							OFFSET 0.000000 0.000000 0.000000
						}
					}
				}
				JOINT LeftShoulder
				{
					OFFSET 0.078845 0.121749 -0.034090
					CHANNELS 3 Zrotation Yrotation Xrotation
					JOINT LeftArm
					{
						OFFSET 0.090977 0.030469 -0.008868
						CHANNELS 3 Zrotation Yrotation Xrotation
						JOINT LeftForeArm
						{
							OFFSET 0.259612 -0.012772 -0.027456
							CHANNELS 3 Zrotation Yrotation Xrotation
							JOINT LeftHand
							{
								OFFSET 0.249234 0.008986 -0.001171
								CHANNELS 3 Zrotation Yrotation Xrotation
								End Site
								{
									OFFSET 0.000000 0.000000 0.000000
								}
							}
						}
					}
				}
				JOINT RightShoulder
				{
					OFFSET -0.081759 0.118833 -0.038615
					CHANNELS 3 Zrotation Yrotation Xrotation
					JOINT RightArm
					{
						OFFSET -0.096012 0.032551 -0.009143
						CHANNELS 3 Zrotation Yrotation Xrotation
						JOINT RightForeArm
						{
							OFFSET -0.253742 -0.013329 -0.021401
							CHANNELS 3 Zrotation Yrotation Xrotation
							JOINT RightHand
							{
								OFFSET -0.255298 0.007772 -0.005559
								CHANNELS 3 Zrotation Yrotation Xrotation
								End Site
								{
									OFFSET 0.000000 0.000000 0.000000
								}
							}
						}
					}
				}
			}
		}
	}
}
MOTION
Frames: 14
Frame Time: 0.050000
-0.187408 0.970020 -0.308900 -169.238687 77.997422 -176.114661 8.008512 -2.757805 -1.265455 -3.886512 -1.771876 -0.920698 6.738327 12.624987 23.669965 0.000000 0.000000 0.000000 -6.140396 -4.370744 5.786012 -3.381124 -15.081857 29.024374 -6.812514 -7.082578 20.409280 0.000000 0.000000 0.000000 -9.051856 -4.054948 21.571671 4.387191 1.061402 -31.032792 7.625041 6.606646 33.516472 -1.952088 11.510491 -26.895366 0.000000 0.000000 0.000000 -17.465223 2.768952 -30.303240 -38.583189 15.424079 -7.014938 -43.631190 -21.848211 4.578650 0.000000 0.000000 0.000000 7.069260 -6.535877 4.874956 51.256536 6.254661 0.847857 29.947829 45.977692 21.080605 0.000000 0.000000 0.000000 
-0.175328 0.975131 -0.328114 -166.271312 79.563702 -171.870958 8.014058 -2.891998 -0.181362 -4.390804 -2.153346 -3.581299 6.537448 13.513867 25.600312 0.000000 0.000000 0.000000 -3.849266 -3.159409 3.960070 3.664556 -14.003974 21.597227 -10.292005 -16.140413 15.815581 0.000000 0.000000 0.000000 -8.439421 -3.991849 21.677333 3.828670 0.957105 -31.716461 7.205931 5.409054 32.436559 -0.756162 11.107982 -25.198180 0.000000 0.000000 0.000000 -17.756374 2.465129 -29.105316 -37.085263 13.921940 -6.117660 -41.408213 -25.081557 5.407001 0.000000 0.000000 0.000000 8.330258 -6.031275 5.539393 50.377281 6.260805 -0.111895 30.552821 47.070008 21.737866 0.000000 0.000000 0.000000 
-0.165531 0.977517 -0.343743 -164.613171 81.872639 -169.139794 6.596765 -2.341525 0.121553 -2.905989 -1.761603 -4.250730 5.083015 13.616057 26.025323 0.000000 0.000000 0.000000 -2.430580 -2.301667 2.175907 7.223400 -11.901955 15.935460 -10.020901 -15.621151 15.489459 0.000000 0.000000 0.000000 -8.475216 -4.071304 22.259645 3.878433 0.349632 -33.880630 6.995018 5.794688 33.721086 -1.002134 11.615468 -26.879254 0.000000 0.000000 0.000000 -17.883931 3.485348 -28.645422 -35.931779 11.417075 -5.244061 -39.819209 -28.265360 6.262650 0.000000 0.000000 0.000000 9.969264 -7.396643 5.451658 49.687751 6.904771 -0.724972 29.551515 47.917619 21.831075 0.000000 0.000000 0.000000 
-0.157252 0.977540 -0.356554 -160.932504 84.642331 -164.875534 5.187665 -1.966752 1.146420 -2.175922 -1.606065 -5.166537 6.163523 14.481877 26.087247 0.000000 0.000000 0.000000 -0.954361 -1.600939 1.233183 7.241590 -9.158935 12.461702 -12.040725 -14.105161 22.596525 0.000000 0.000000 0.000000 -8.589379 -4.146177 22.884235 3.629129 0.161893 -34.643830 6.861098 6.347082 33.327845 0.037487 11.336378 -27.160950 0.000000 0.000000 0.000000 -18.579590 2.282907 -27.410611 -34.228489 10.111699 -4.367124 -37.375129 -30.378966 6.603021 0.000000 0.000000 0.000000 11.340234 -6.860506 6.228613 48.932950 6.176779 -1.888511 27.946193 49.162420 21.310618 0.000000 0.000000 0.000000 
-0.150259 0.975926 -0.366704 -150.869983 86.876145 -154.119911 4.122615 -1.695561 1.926498 -1.880143 -1.627904 -6.367393 8.250819 15.615263 26.325619 0.000000 0.000000 0.000000 -0.244461 -1.208780 0.243407 8.199859 -8.068526 9.889674 -16.611714 -15.404682 34.451740 0.000000 0.000000 0.000000 -8.471742 -4.021453 22.822956 3.501772 0.130249 -34.502725 6.489526 5.911217 32.855094 -0.365638 11.430969 -28.141172 0.000000 0.000000 0.000000 -18.628618 2.565647 -26.209828 -33.916881 8.154282 -3.898632 -35.119758 -31.094791 6.357240 0.000000 0.000000 0.000000 11.380903 -7.682224 5.187570 49.150243 5.157804 -2.321233 27.012135 49.247186 21.029786 0.000000 0.000000 0.000000 
-0.143687 0.973925 -0.374026 -108.639047 88.663636 -111.408281 3.627779 -1.428391 1.421336 -1.753291 -1.366141 -5.301961 8.524000 16.087982 26.393722 0.000000 0.000000 0.000000 0.909555 -0.788907 -0.268239 8.349140 -6.543734 6.872069 -25.121909 -22.713437 47.991536 0.000000 0.000000 0.000000 -7.770805 -3.973005 22.950128 3.504337 0.083966 -34.656101 5.923572 5.469596 32.548640 0.431105 11.039633 -28.024034 0.000000 0.000000 0.000000 -19.187560 2.108926 -25.428088 -33.422691 7.135379 -3.429627 -33.585490 -32.388870 6.395107 0.000000 0.000000 0.000000 11.725383 -7.982378 4.773224 48.591713 3.812593 -3.181695 25.296641 50.571643 20.920186 0.000000 0.000000 0.000000 
-0.137114 0.971669 -0.378387 -19.986977 87.315374 -22.646449 3.486752 -1.323806 1.671321 -2.584434 -1.284552 -4.414311 10.102017 17.185130 26.192193 0.000000 0.000000 0.000000 1.296841 -0.658006 0.261233 9.452720 -5.857192 3.960604 -34.259411 -33.563365 51.751843 0.000000 0.000000 0.000000 -7.126909 -3.746016 22.609051 3.166919 0.397786 -33.508551 5.782582 4.927524 31.866098 0.962673 10.596680 -27.721623 0.000000 0.000000 0.000000 -19.639673 1.466379 -24.150991 -33.348282 5.748317 -3.021844 -31.105473 -33.046594 6.031102 0.000000 0.000000 0.000000 10.939946 -7.968209 3.765856 48.894603 2.311758 -3.629787 23.196955 50.733763 20.061295 0.000000 0.000000 0.000000 
-0.130087 0.969736 -0.380078 -9.999727 83.937298 -12.792409 4.509376 -1.483911 1.837345 -4.369644 -1.303059 -2.850472 12.190161 18.721692 26.622992 0.000000 0.000000 0.000000 2.417350 -0.493927 1.364262 9.256382 -4.663213 1.096584 -40.448942 -40.368730 54.614793 0.000000 0.000000 0.000000 -5.980170 -3.726474 22.719860 3.967776 0.272372 -33.724380 4.740303 5.231971 32.126474 1.536575 10.054631 -27.614421 0.000000 0.000000 0.000000 -20.182137 1.083745 -23.087706 -33.338602 5.512242 -2.962497 -30.142166 -33.772503 5.979563 0.000000 0.000000 0.000000 10.720506 -7.698296 3.296731 48.319569 1.149421 -4.109477 22.292871 51.021403 19.601533 0.000000 0.000000 0.000000 
-0.123146 0.967072 -0.379388 -4.819793 79.669692 -8.143769 4.888382 -1.469411 2.135020 -5.778424 -1.172358 -0.363897 14.934952 20.683320 27.004343 0.000000 0.000000 0.000000 2.808894 -0.451470 1.953175 9.449896 -4.278450 0.268700 -44.617300 -45.642000 54.906793 0.000000 0.000000 0.000000 -5.363668 -3.786514 23.264360 4.631612 0.249354 -33.505592 4.795049 5.572849 32.028005 1.784484 9.663233 -27.747536 0.000000 0.000000 0.000000 -20.945830 1.508063 -22.331907 -34.104350 4.641730 -2.918019 -30.540398 -33.818193 6.173102 0.000000 0.000000 0.000000 9.758856 -8.029961 1.985271 47.996652 -0.219349 -4.527232 24.495252 51.684100 21.560837 0.000000 0.000000 0.000000 
-0.117118 0.965825 -0.376792 -3.600969 74.427439 -7.848736 6.033116 -1.749529 3.529571 -7.777734 -1.129475 2.189641 15.800245 22.031310 25.374124 0.000000 0.000000 0.000000 3.713295 -0.453010 2.907150 8.473208 -3.497428 0.220539 -44.818709 -47.546869 53.366339 0.000000 0.000000 0.000000 -4.198374 -3.832310 23.671959 6.412151 0.119346 -32.932347 3.021676 6.029357 32.021124 2.559327 8.800374 -28.446449 0.000000 0.000000 0.000000 -21.457724 1.876010 -20.901606 -34.474386 4.762993 -3.198948 -32.071995 -34.906147 6.908466 0.000000 0.000000 0.000000 10.263000 -7.375026 2.037136 45.705805 -0.595828 -5.130804 28.357123 52.082979 23.726210 0.000000 0.000000 0.000000 
-0.113008 0.966519 -0.372220 -1.573755 69.022416 -6.313371 6.382794 -1.680680 3.851543 -8.719006 -0.987067 5.350694 14.827636 22.569123 24.841794 0.000000 0.000000 0.000000 4.474620 -0.663256 4.434333 6.423774 -2.281166 -1.043715 -41.130693 -46.865426 48.879359 0.000000 0.000000 0.000000 -3.501168 -3.654709 23.564744 7.250030 0.206730 -30.563326 1.741344 5.957098 30.714615 4.936423 7.115583 -29.504148 0.000000 0.000000 0.000000 -21.918083 2.244932 -19.539641 -34.243047 3.770069 -2.971470 -35.854444 -35.966596 8.316423 0.000000 0.000000 0.000000 10.349309 -7.384843 1.473663 43.918994 -2.065150 -5.755126 33.918170 51.473257 26.511282 0.000000 0.000000 0.000000 
-0.111461 0.967441 -0.366492 -0.169499 62.985275 -5.712217 6.937425 -1.418358 2.195874 -10.307586 -1.096170 11.499159 14.635431 23.892928 27.883808 0.000000 0.000000 0.000000 4.758391 -0.992030 6.039576 5.410782 -1.721419 -1.262471 -34.516677 -45.078685 40.013830 0.000000 0.000000 0.000000 -3.137316 -3.459315 23.656134 9.491624 -0.282226 -28.778577 -0.045673 6.287811 30.321355 5.261660 6.324401 -30.692635 0.000000 0.000000 0.000000 -21.841085 3.654298 -18.278234 -35.305849 3.199101 -3.297125 -40.094122 -36.476268 9.752779 0.000000 0.000000 0.000000 10.335910 -6.462045 1.454511 43.022296 -2.737294 -6.132322 36.560589 49.323703 26.318678 0.000000 0.000000 0.000000 
-0.111612 0.969311 -0.360340 0.765863 54.332781 -4.568960 8.739194 -1.454646 1.187738 -13.647219 -0.960869 16.127797 13.396136 24.343438 29.156382 0.000000 0.000000 0.000000 4.838459 -1.149380 6.819324 3.816737 -1.050312 -1.551043 -25.289988 -39.094436 29.493011 0.000000 0.000000 0.000000 -3.851333 -2.814592 23.385342 11.837077 -1.013352 -27.465227 -0.534679 8.087491 29.264158 6.646740 4.917387 -30.855681 0.000000 0.000000 0.000000 -24.342236 3.820308 -18.254190 -32.690262 3.914865 -2.995753 -46.326304 -35.733387 12.032666 0.000000 0.000000 0.000000 10.687962 -6.471756 1.031349 40.073035 -3.464020 -6.420594 41.817352 45.426165 26.348990 0.000000 0.000000 0.000000 
-0.111410 0.969543 -0.354123 1.787555 46.834144 -3.262080 9.541868 -1.243614 -1.691984 -17.257402 -0.582326 21.677256 15.992840 26.921981 31.405919 0.000000 0.000000 0.000000 3.668502 -1.007500 6.311918 3.484093 -0.880626 -0.446541 -19.014619 -33.089803 22.571213 0.000000 0.000000 0.000000 -3.826741 -2.118354 21.689058 13.300010 -1.864135 -24.516122 -1.981627 6.563282 27.685623 4.556266 4.766556 -28.852911 0.000000 0.000000 0.000000 -24.473025 7.378279 -17.649277 -34.551923 3.465249 -3.685316 -53.051459 -35.017966 14.117397 0.000000 0.000000 0.000000 9.149961 -4.430110 0.937268 39.834110 -4.497477 -6.585854 44.143988 42.139754 24.933413 0.000000 0.000000 0.000000 
